<!DOCTYPE svg PUBLIC "-//W3C//DTD SVG 1.1//EN" "http://www.w3.org/Graphics/SVG/1.1/DTD/svg11.dtd">
<!-- Uploaded to: SVG Repo, www.svgrepo.com, Transformed by: SVG Repo Mixer Tools -->
<svg height="800px" width="800px" version="1.1" id="Layer_1" xmlns="http://www.w3.org/2000/svg" xmlns:xlink="http://www.w3.org/1999/xlink" viewBox="0 0 511.99 511.99" xml:space="preserve" fill="#000000">
<g id="SVGRepo_bgCarrier" stroke-width="0"/>
<g id="SVGRepo_tracerCarrier" stroke-linecap="round" stroke-linejoin="round"/>
<g id="SVGRepo_iconCarrier"> <path style="fill:#DA4453;" d="M181.332,53.328c-47.054,0-85.326,38.28-85.326,85.326c0,47.062,38.272,85.342,85.326,85.342 s85.333-38.28,85.333-85.342C266.666,91.608,228.386,53.328,181.332,53.328z"/> <circle style="fill:#434A54;" cx="181.335" cy="138.655" r="31.999"/> <path style="fill:#C1364B;" d="M181.332,181.325c-23.523,0-42.663-19.14-42.663-42.671s19.14-42.655,42.663-42.655 c23.531,0,42.663,19.125,42.663,42.655S204.863,181.325,181.332,181.325z M181.332,117.327c-11.765,0-21.328,9.562-21.328,21.328 s9.562,21.343,21.328,21.343s21.335-9.578,21.335-21.343S193.098,117.327,181.332,117.327z"/> <path style="fill:#AAB2BC;" d="M202.668,149.326h-42.663c-5.898,0-10.671,4.766-10.671,10.672V469.32 c0,5.889,4.773,10.67,10.671,10.67h42.663c5.891,0,10.664-4.781,10.664-10.67V159.997 C213.332,154.091,208.558,149.326,202.668,149.326z"/> <path style="fill:#CCD1D9;" d="M478.865,464.554l-42.656-85.342c-1.812-3.609-5.5-5.891-9.546-5.891h-42.671 c-3.688,0-7.125,1.906-9.062,5.062c-1.953,3.141-2.125,7.061-0.469,10.373l42.655,85.326c1.812,3.609,5.5,5.906,9.547,5.906h42.671 c3.688,0,7.125-1.922,9.062-5.062C480.334,471.77,480.521,467.85,478.865,464.554z"/> <path style="fill:#5D9CEC;" d="M469.334,309.321H10.672c-2.828,0-5.547,1.125-7.547,3.125S0,317.149,0,319.993l0.007,32 c0,23.516,19.141,42.654,42.664,42.654h426.662c23.531,0,42.655-19.139,42.655-42.654 C511.989,328.462,492.865,309.321,469.334,309.321z"/> <path style="opacity:0.2;fill:#FFFFFF;enable-background:new ;" d="M3.125,323.102c2-2,4.719-3.109,7.547-3.109h458.662 c21.719,0,39.687,16.312,42.312,37.328c0.219-1.75,0.344-3.531,0.344-5.328c0-23.531-19.124-42.672-42.655-42.672H10.672 c-2.828,0-5.547,1.125-7.547,3.125S0,317.149,0,319.993l0.007,10.656C0.008,327.821,1.125,325.102,3.125,323.102z"/> <path style="fill:#CCD1D9;" d="M117.334,74.656H74.671c-5.891,0-10.664,4.781-10.664,10.672V469.32 c0,5.889,4.773,10.67,10.664,10.67h42.663c5.891,0,10.672-4.781,10.672-10.67V85.328C128.006,79.437,123.224,74.656,117.334,74.656z "/> <path style="fill:#ED5564;" d="M96.006,32C43.069,32,0.001,75.062,0.001,127.998c0,52.92,43.069,95.998,96.005,95.998 c52.929,0,95.99-43.077,95.99-95.998C191.996,75.062,148.935,32,96.006,32z"/> <path style="fill:#656D78;" d="M128.006,127.998c0,17.671-14.328,31.999-32,31.999c-17.679,0-31.999-14.328-31.999-31.999 c0-17.688,14.32-32,31.999-32C113.678,95.999,128.006,110.311,128.006,127.998z"/> <path style="fill:#DA4453;" d="M96.006,170.654c-23.531,0-42.671-19.141-42.671-42.655c0-23.531,19.14-42.671,42.671-42.671 c23.523,0,42.663,19.14,42.663,42.671C138.669,151.513,119.529,170.654,96.006,170.654z M96.006,106.655 c-11.765,0-21.335,9.578-21.335,21.344c0,11.75,9.57,21.327,21.335,21.327c11.757,0,21.328-9.578,21.328-21.327 C117.334,116.233,107.764,106.655,96.006,106.655z"/> <path style="fill:#434A54;" d="M103.545,120.452c4.164,4.156,4.164,10.922,0,15.078c-4.164,4.172-10.922,4.172-15.086,0 c-4.164-4.156-4.164-10.921,0-15.078C92.623,116.28,99.381,116.28,103.545,120.452z"/> <path style="fill:#656D78;" d="M128.006,479.989H64.007c-5.898,0-10.672-4.781-10.672-10.67c0-5.891,4.773-10.672,10.672-10.672 h63.999c5.89,0,10.664,4.781,10.664,10.672C138.669,475.208,133.896,479.989,128.006,479.989z"/> <g> <path style="fill:#434A54;" d="M213.332,458.647h-63.999c-5.891,0-10.664,4.781-10.664,10.672c0,5.889,4.773,10.67,10.664,10.67 h63.999c5.89,0,10.664-4.781,10.664-10.67C223.995,463.429,219.222,458.647,213.332,458.647z"/> <path style="fill:#434A54;" d="M479.99,479.989h-63.999c-5.891,0-10.655-4.781-10.655-10.67c0-5.891,4.765-10.672,10.655-10.672 h63.999c5.906,0,10.672,4.781,10.672,10.672C490.662,475.208,485.896,479.989,479.99,479.989z"/> </g> </g>
</svg>