<!DOCTYPE svg PUBLIC "-//W3C//DTD SVG 1.1//EN" "http://www.w3.org/Graphics/SVG/1.1/DTD/svg11.dtd">
<!-- Uploaded to: SVG Repo, www.svgrepo.com, Transformed by: SVG Repo Mixer Tools -->
<svg fill="#E27d60" height="800px" width="800px" version="1.1" id="Layer_1" xmlns="http://www.w3.org/2000/svg" xmlns:xlink="http://www.w3.org/1999/xlink" viewBox="0 0 512.00 512.00" xml:space="preserve" transform="rotate(0)matrix(1, 0, 0, 1, 0, 0)" stroke="#E27d60" stroke-width="0.00512">
<g id="SVGRepo_bgCarrier" stroke-width="0"/>
<g id="SVGRepo_tracerCarrier" stroke-linecap="round" stroke-linejoin="round" stroke="#41b3A3" stroke-width="19.456"> <g> <g> <circle cx="199.473" cy="145.468" r="39.311"/> </g> </g> <g> <g> <path d="M495.429,371.596c-0.012,0-0.026,0-0.039,0l-20.233,0.047c-1.154-3.147-3.003-6.093-5.589-8.567l-98.048-93.732 c-7.981-7.63-20.301-8.393-29.164-1.809l-51.061,37.942l-23.013-88.803l51.124-76.684c7.22-10.83,0.044-25.41-12.881-26.368 l-68.072-5.042c6.529,6.911,11.179,15.503,13.329,24.839c0.789,3.428,1.235,6.881,1.353,10.322l21.853,1.619l-30.197,45.295 l-63.857,15.267l20.492,19.097l-57.072-33.374l12.071-14.143c-4.402-5.923-7.588-12.733-9.259-19.994 c-1.589-6.9-1.798-13.902-0.693-20.687l-41.192,48.261c-6.889,8.069-4.761,20.41,4.394,25.724l79.884,46.363l-16.759-3.636 l27.342,118.744l-183.61,0.423C7.381,372.722-0.021,380.159,0,389.31c0.021,9.138,7.436,16.533,16.57,16.533 c0.013,0,0.027,0,0.039,0l478.859-1.104c9.151-0.021,16.553-7.457,16.533-16.608C511.979,378.99,504.564,371.596,495.429,371.596z M277.599,372.1l76.433-56.796l59.084,56.483L277.599,372.1z"/> </g> </g> </g>
<g id="SVGRepo_iconCarrier"> <g> <g> <circle cx="199.473" cy="145.468" r="39.311"/> </g> </g> <g> <g> <path d="M495.429,371.596c-0.012,0-0.026,0-0.039,0l-20.233,0.047c-1.154-3.147-3.003-6.093-5.589-8.567l-98.048-93.732 c-7.981-7.63-20.301-8.393-29.164-1.809l-51.061,37.942l-23.013-88.803l51.124-76.684c7.22-10.83,0.044-25.41-12.881-26.368 l-68.072-5.042c6.529,6.911,11.179,15.503,13.329,24.839c0.789,3.428,1.235,6.881,1.353,10.322l21.853,1.619l-30.197,45.295 l-63.857,15.267l20.492,19.097l-57.072-33.374l12.071-14.143c-4.402-5.923-7.588-12.733-9.259-19.994 c-1.589-6.9-1.798-13.902-0.693-20.687l-41.192,48.261c-6.889,8.069-4.761,20.41,4.394,25.724l79.884,46.363l-16.759-3.636 l27.342,118.744l-183.61,0.423C7.381,372.722-0.021,380.159,0,389.31c0.021,9.138,7.436,16.533,16.57,16.533 c0.013,0,0.027,0,0.039,0l478.859-1.104c9.151-0.021,16.553-7.457,16.533-16.608C511.979,378.99,504.564,371.596,495.429,371.596z M277.599,372.1l76.433-56.796l59.084,56.483L277.599,372.1z"/> </g> </g> </g>
</svg>